<?xml version="1.0" encoding="utf-8"?>
<svg style="height:0;display:block;" aria-hidden="true" version="1.1" xmlns="http://www.w3.org/2000/svg" xmlns:xlink="http://www.w3.org/1999/xlink">
	<defs>
		<symbol id="barcode" viewBox="0 0 60 40">
			<path d="M725,588h0a2,2,0,0,1-2-2V550a2,2,0,0,1,4,0v36a2,2,0,0,1-2,2m28,0h0a2,2,0,0,1-2-2V550a2,2,0,0,1,4,0v36a2,2,0,0,1-2,2m28,0h0a2,2,0,0,1-2-2V550a2,2,0,0,1,4,0v36a2,2,0,0,1-2,2m-49-10h0a2,2,0,0,1-2-2V550a2,2,0,0,1,4,0v26a2,2,0,0,1-2,2m7,0h0a2,2,0,0,1-2-2V550a2,2,0,0,1,4,0v26a2,2,0,0,1-2,2m7,0h0a2,2,0,0,1-2-2V550a2,2,0,0,1,4,0v26a2,2,0,0,1-2,2m14,0h0a2,2,0,0,1-2-2V550a2,2,0,0,1,4,0v26a2,2,0,0,1-2,2m7,0h0a2,2,0,0,1-2-2V550a2,2,0,0,1,4,0v26a2,2,0,0,1-2,2m7,0h0a2,2,0,0,1-2-2V550a2,2,0,0,1,4,0v26a2,2,0,0,1-2,2" transform="translate(-723 -548)" />
		</symbol>
		<symbol id="options" viewBox="0 0 48 38">
			<path d="M803,576h-6.422a4.993,4.993,0,0,1-9.156,0H759a2,2,0,0,1,0-4h28.422a4.993,4.993,0,0,1,9.156,0H803A2,2,0,0,1,803,576Zm0-14H774.578a4.993,4.993,0,0,1-9.156,0H759a2,2,0,0,1,0-4h6.422a4.993,4.993,0,0,1,9.156,0H803A2,2,0,0,1,803,562Zm-44,24h14.422a4.993,4.993,0,0,1,9.156,0H803a2,2,0,0,1,0,4H782.578a4.993,4.993,0,0,1-9.156,0H759A2,2,0,0,1,759,586Z" transform="translate(-757 -555)"/>
		</symbol>
		<symbol id="plus" viewBox="0 0 20 20">
			<path d="M148,1702h-6v6a2,2,0,0,1-4,0v-6h-6a2,2,0,0,1,0-4h6v-6a2,2,0,0,1,4,0v6h6A2,2,0,0,1,148,1702Z" transform="translate(-130 -1690)"/>
		</symbol>
		<symbol id="play" viewBox="0 0 477.886 477.886">
			<path d="M476.091,231.332c-1.654-3.318-4.343-6.008-7.662-7.662L24.695,1.804C16.264-2.41,6.013,1.01,1.8,9.442c-1.185,2.371-1.801,4.986-1.8,7.637v443.733c-0.004,9.426,7.633,17.07,17.059,17.075c2.651,0.001,5.266-0.615,7.637-1.8L468.429,254.22C476.865,250.015,480.295,239.768,476.091,231.332z"/>
		</symbol>
		<symbol id="pause" viewBox="0 0 477.867 477.867">
			<path d="M187.733,0H51.2c-9.426,0-17.067,7.641-17.067,17.067V460.8c0,9.426,7.641,17.067,17.067,17.067h136.533c9.426,0,17.067-7.641,17.067-17.067V17.067C204.8,7.641,197.159,0,187.733,0z"/>
			<path d="M426.667,0H290.133c-9.426,0-17.067,7.641-17.067,17.067V460.8c0,9.426,7.641,17.067,17.067,17.067h136.533c9.426,0,17.067-7.641,17.067-17.067V17.067C443.733,7.641,436.092,0,426.667,0z"/>
		</symbol>
		<symbol id="close" viewBox="0 0 477.867 477.867">
			<path d="M239.000,0.000 C107.004,0.000 0.000,107.004 0.000,239.000 C0.000,370.996 107.004,478.000 239.000,478.000 C370.996,478.000 478.000,370.996 478.000,239.000 C477.860,107.063 370.938,0.141 239.000,0.000 ZM106.254,82.761 C143.323,51.302 190.381,34.067 239.000,34.144 C287.419,34.129 334.264,51.346 371.150,82.712 L82.643,371.219 C9.508,285.043 20.079,155.897 106.254,82.761 ZM371.747,395.240 C334.678,426.699 287.620,443.934 239.001,443.857 C190.581,443.872 143.737,426.655 106.851,395.289 L395.359,106.781 C468.493,192.957 457.922,322.104 371.747,395.240 Z"/>
		</symbol>
		<symbol id="camera" viewBox="0 0 80 63">
			<path d="M489.338,1801.34a8.61,8.61,0,0,1-6.311,2.66H420.973a9.068,9.068,0,0,1-6.311-2.66,8.624,8.624,0,0,1-2.662-6.32v-37.89a9.03,9.03,0,0,1,2.662-6.31,8.581,8.581,0,0,1,6.311-2.67h12.548V1748a7,7,0,0,1,7.072-7h22.814a6.967,6.967,0,0,1,4.943,2.05A6.85,6.85,0,0,1,470.4,1748v0.15h12.624a9.105,9.105,0,0,1,8.973,8.98v37.89A9.054,9.054,0,0,1,489.338,1801.34Zm-1.292-44.21a4.942,4.942,0,0,0-4.943-4.95H468.426a2.042,2.042,0,0,1-2.053-2.05v-2.21a2.853,2.853,0,0,0-2.966-2.96H440.669a2.853,2.853,0,0,0-2.966,2.96v2.21a2.042,2.042,0,0,1-2.053,2.05H420.973a4.942,4.942,0,0,0-4.943,4.95v37.89a4.942,4.942,0,0,0,4.943,4.95h62.054a4.94,4.94,0,0,0,4.942-4.95h0.077v-37.89Zm-8.974,7.61a3.73,3.73,0,1,1,3.726-3.73A3.728,3.728,0,0,1,479.072,1764.74ZM452,1794.79a18.561,18.561,0,0,1-13.232-5.47,18.768,18.768,0,0,1-5.475-13.24,18.707,18.707,0,1,1,31.939,13.24A18.761,18.761,0,0,1,452,1794.79Zm10.342-28.99A14.886,14.886,0,0,0,452,1761.54a14.545,14.545,0,0,0-10.342,4.26,14.894,14.894,0,0,0-4.259,10.35,14.553,14.553,0,0,0,4.259,10.35,14.684,14.684,0,0,0,20.684,0,14.244,14.244,0,0,0,4.259-10.35A14.57,14.57,0,0,0,462.342,1765.8Z" transform="translate(-412 -1741)"/>
		</symbol>
		<symbol id="warning" viewBox="0 0 511.5 446">
			<path d="M497.288,409.694A81.531,81.531,0,0,1,428.792,446H83.176A82.964,82.964,0,0,1,12.717,319.427L185.525,39.348a82.757,82.757,0,0,1,140.916,0L454.248,246.491l51.634,86.1A82.784,82.784,0,0,1,497.288,409.694Zm-28.517-62.279-48.518-79.9L292.447,60.368a42.823,42.823,0,0,0-72.925,0L46.714,340.446A42.963,42.963,0,0,0,83.176,406H428.792a42.138,42.138,0,0,0,35.416-18.742A42.793,42.793,0,0,0,468.771,347.415ZM255.993,367a20,20,0,0,1-.01-40h0.01A20,20,0,0,1,255.993,367Zm-0.009-70a19.989,19.989,0,0,1-19.979-20V130a19.979,19.979,0,1,1,39.958,0V277A19.989,19.989,0,0,1,255.984,297Z" transform="translate(-0.188)"/>
		</symbol>
		<symbol id="cameraSwitch" viewBox="0 0 512 512">
			<path d="M423,137h-52c-2.045,0-3.883-1.245-4.643-3.143L355.7,107.213C350.789,94.934,339.069,87,325.845,87H186.155   c-13.225,0-24.944,7.934-29.855,20.213l-10.658,26.644C144.883,135.755,143.044,137,141,137H89c-18.196,0-33,14.804-33,33v222   c0,18.196,14.804,33,33,33h334c18.196,0,33-14.804,33-33V170C456,151.804,441.196,137,423,137z M140.462,248.88   c-1.235-2.47-0.234-5.473,2.236-6.708l28.284-14.142c1.926-0.961,4.249-0.584,5.771,0.937l21.213,21.213   c1.953,1.953,1.953,5.119,0,7.072c-0.977,0.976-2.256,1.464-3.536,1.464s-2.559-0.488-3.536-1.464l-18.665-18.666l-25.061,12.53   C144.7,252.351,141.696,251.35,140.462,248.88z M295.491,371.273c-13.029,6.224-26.993,9.247-40.85,9.248   c-24.702,0.001-49.074-9.604-67.281-27.812c-28.421-28.42-35.881-71.874-18.563-108.13c1.19-2.492,4.173-3.546,6.667-2.356   c2.492,1.19,3.547,4.175,2.356,6.667c-15.495,32.438-8.819,71.318,16.611,96.749c25.43,25.429,64.312,32.105,96.749,16.61   c2.495-1.19,5.477-0.134,6.667,2.356C299.038,367.099,297.982,370.083,295.491,371.273z M366.373,314.756l-28.284,14.143   c-0.711,0.355-1.476,0.528-2.235,0.528c-1.094,0-2.163-0.379-3.051-1.067c-0.064-0.048-0.121-0.1-0.183-0.149   c-0.1-0.085-0.209-0.154-0.303-0.248l-21.213-21.214c-1.953-1.952-1.953-5.118,0-7.07c1.951-1.953,5.119-1.953,7.07,0   l15.889,15.889c11.693-30.984,4.299-66.412-19.424-90.135c-25.43-25.43-64.308-32.106-96.749-16.611   c-2.492,1.19-5.477,0.136-6.667-2.356c-1.19-2.492-0.135-5.477,2.356-6.667c36.256-17.318,79.71-9.857,108.13,18.563   c25.275,25.274,33.955,62.435,23.392,95.852l16.799-8.399c2.472-1.236,5.474-0.233,6.708,2.235   C369.844,310.518,368.843,313.521,366.373,314.756z"/>
		</symbol>
		<symbol id="x" viewBox="0 0 39 39">
			<path d="M4.6,38.99L0.006,34.4l14.9-14.9L0.006,4.6,4.6,0.006,19.5,15.544,34.4,0.006,38.99,4.6l-14.9,14.9,14.9,14.9-4.59,4.59-14.9-14.9Z"/>
		</symbol>
	</defs>
</svg>

